<?xml version="1.0" encoding="UTF-8" standalone="no"?>
<!-- Created with Inkscape (http://www.inkscape.org/) -->

<svg
   xmlns:dc="http://purl.org/dc/elements/1.1/"
   xmlns:cc="http://creativecommons.org/ns#"
   xmlns:rdf="http://www.w3.org/1999/02/22-rdf-syntax-ns#"
   xmlns:svg="http://www.w3.org/2000/svg"
   xmlns="http://www.w3.org/2000/svg"
   xmlns:sodipodi="http://sodipodi.sourceforge.net/DTD/sodipodi-0.dtd"
   xmlns:inkscape="http://www.inkscape.org/namespaces/inkscape"
   width="35.048943"
   height="34.817921"
   id="svg10875"
   version="1.1"
   inkscape:version="0.48.5 r10040"
   sodipodi:docname="Neues Dokument 28">
  <defs
     id="defs10877">
    <filter
       color-interpolation-filters="sRGB"
       inkscape:collect="always"
       id="filter9336-8-4">
      <feGaussianBlur
         inkscape:collect="always"
         stdDeviation="7.3666931"
         id="feGaussianBlur9338-7-5" />
    </filter>
  </defs>
  <sodipodi:namedview
     id="base"
     pagecolor="#ffffff"
     bordercolor="#666666"
     borderopacity="1.0"
     inkscape:pageopacity="0.0"
     inkscape:pageshadow="2"
     inkscape:zoom="0.35"
     inkscape:cx="378.95304"
     inkscape:cy="-148.30533"
     inkscape:document-units="px"
     inkscape:current-layer="layer1"
     showgrid="false"
     fit-margin-top="0"
     fit-margin-left="0"
     fit-margin-right="0"
     fit-margin-bottom="0"
     inkscape:window-width="465"
     inkscape:window-height="411"
     inkscape:window-x="723"
     inkscape:window-y="304"
     inkscape:window-maximized="0" />
  <metadata
     id="metadata10880">
    <rdf:RDF>
      <cc:Work
         rdf:about="">
        <dc:format>image/svg+xml</dc:format>
        <dc:type
           rdf:resource="http://purl.org/dc/dcmitype/StillImage" />
        <dc:title></dc:title>
      </cc:Work>
    </rdf:RDF>
  </metadata>
  <g
     inkscape:label="Ebene 1"
     inkscape:groupmode="layer"
     id="layer1"
     transform="translate(28.953043,-349.23893)">
    <path
       class="fil1"
       d="m -22.947324,350.42085 c 8.992692,-1.55481 13.8154819,-1.59683 22.59805192,0 2.77345998,0.54628 4.62240998,2.39525 5.16867998,5.21071 1.72292,8.86663 1.68093,13.77529 0,22.64192 -0.54627,2.81547 -2.35319,4.91657 -5.16867998,5.1687 -8.78257002,0.84044 -13.60535992,0.79842 -22.59805192,0 -2.81545,-0.25213 -4.8325,-2.35323 -5.16868,-5.1687 -1.00853,-8.86663 -1.21864,-13.77529 0,-22.64192 0.37821,-2.81546 2.39525,-4.70645 5.16868,-5.21071 z"
       id="path10643-4-9"
       inkscape:connector-curvature="0"
       style="fill:#000000;fill-opacity:0.29803922;fill-rule:evenodd"
       sodipodi:nodetypes="ccccccccc" />
    <path
       class="fil20"
       d="m 1751.3188,1102.5942 c 191,-34 331.3624,-35 519.3624,0 59,11 99,51 110,110 37,190 36,283.8116 0,473.8116 -11,60 -50,105 -110,111 -188,17 -328.3624,17 -519.3624,0 -61,-6 -104,-51 -111,-111 -21,-190 -26,-283.8116 0,-473.8116 8,-60 51,-100 111,-110 z"
       id="path10653-9-1"
       inkscape:connector-curvature="0"
       style="fill:#00aadc;fill-opacity:1;fill-rule:evenodd;filter:url(#filter9336-8-4)"
       transform="matrix(0.04202193,0,0,0.04202193,-95.994724,305.77019)"
       sodipodi:nodetypes="ccccccccc" />
    <path
       class="fil31"
       d="m -22.636124,352.4566 c 6.891602,-1.21864 11.613302,-1.21864 18.3368119,0 2.14311,0.42022 3.57183002,1.84896 3.99206002,3.99207 1.30269,6.80756 1.26066,9.61512 0,16.42268 -0.42023,2.14311 -1.80693002,3.73995 -3.99206002,3.95006 -6.7235099,0.63033 -11.4452099,0.63033 -18.3368119,0 -2.18513,-0.16808 -3.73992,-1.80695 -3.99206,-3.95006 -0.75638,-6.80756 -0.92448,-9.61512 0,-16.42268 0.29416,-2.18513 1.84895,-3.61388 3.99206,-3.99207 z"
       id="path10677-2-2"
       inkscape:connector-curvature="0"
       style="fill:#00aadc;fill-opacity:1;fill-rule:evenodd"
       sodipodi:nodetypes="ccccccccc" />
    <path
       class="fil17"
       d="m -22.401024,352.10337 c 8.026192,-1.42875 13.9244719,-1.47077 21.82459192,0 2.47929998,0.46224 4.16015998,2.14312 4.62241998,4.62241 0.71439,3.61389 1.09256,5.22777 1.13459,8.84166 -10.65566,-5.35342 -22.6995999,2.97287 -32.9604019,-0.084 0,-3.57186 0.25211,-5.14373 0.71436,-8.75762 0.33619,-2.5213 2.14312,-4.20218 4.66444,-4.6224 z"
       id="path10679-4-8"
       inkscape:connector-curvature="0"
       style="fill:#ffffff;fill-opacity:0.50196078;fill-rule:evenodd;stroke-width:5.64449501;stroke-miterlimit:4;stroke-dasharray:none"
       sodipodi:nodetypes="ccccccc" />
    <path
       style="fill:#ffffff;fill-opacity:1;fill-rule:evenodd;stroke:#dcdcdc;stroke-width:0.99999988;stroke-linecap:butt;stroke-linejoin:miter;stroke-miterlimit:4;stroke-opacity:1;stroke-dasharray:none"
       d="m -7.3952121,357.90732 -15.3204919,8.84531 15.3204919,8.84531 0,-6.74738 6.56600002,0 0,-4.3773 -6.56600002,0 z"
       id="path9794"
       inkscape:connector-curvature="0" />
  </g>
</svg>
