<?xml version="1.0" encoding="UTF-8" standalone="no"?>
<!-- Created with Inkscape (http://www.inkscape.org/) -->

<svg
   xmlns:dc="http://purl.org/dc/elements/1.1/"
   xmlns:cc="http://creativecommons.org/ns#"
   xmlns:rdf="http://www.w3.org/1999/02/22-rdf-syntax-ns#"
   xmlns:svg="http://www.w3.org/2000/svg"
   xmlns="http://www.w3.org/2000/svg"
   xmlns:sodipodi="http://sodipodi.sourceforge.net/DTD/sodipodi-0.dtd"
   xmlns:inkscape="http://www.inkscape.org/namespaces/inkscape"
   width="35.048866"
   height="34.817902"
   id="svg10420"
   version="1.1"
   inkscape:version="0.48.5 r10040"
   sodipodi:docname="Neues Dokument 16">
  <defs
     id="defs10422">
    <filter
       color-interpolation-filters="sRGB"
       inkscape:collect="always"
       id="filter9336-8-4-9-4-3-3">
      <feGaussianBlur
         inkscape:collect="always"
         stdDeviation="7.3666931"
         id="feGaussianBlur9338-7-5-6-5-4-3" />
    </filter>
    <filter
       color-interpolation-filters="sRGB"
       inkscape:collect="always"
       id="filter9336-8-4-9-4-3">
      <feGaussianBlur
         inkscape:collect="always"
         stdDeviation="7.3666931"
         id="feGaussianBlur9338-7-5-6-5-4" />
    </filter>
    <filter
       color-interpolation-filters="sRGB"
       inkscape:collect="always"
       id="filter9336-8-4-9-4">
      <feGaussianBlur
         inkscape:collect="always"
         stdDeviation="7.3666931"
         id="feGaussianBlur9338-7-5-6-5" />
    </filter>
    <filter
       color-interpolation-filters="sRGB"
       inkscape:collect="always"
       id="filter9336-8-4-9">
      <feGaussianBlur
         inkscape:collect="always"
         stdDeviation="7.3666931"
         id="feGaussianBlur9338-7-5-6" />
    </filter>
    <filter
       color-interpolation-filters="sRGB"
       inkscape:collect="always"
       id="filter9336-8-4">
      <feGaussianBlur
         inkscape:collect="always"
         stdDeviation="7.3666931"
         id="feGaussianBlur9338-7-5" />
    </filter>
    <filter
       color-interpolation-filters="sRGB"
       inkscape:collect="always"
       id="filter9336-8">
      <feGaussianBlur
         inkscape:collect="always"
         stdDeviation="7.3666931"
         id="feGaussianBlur9338-7" />
    </filter>
  </defs>
  <sodipodi:namedview
     id="base"
     pagecolor="#ffffff"
     bordercolor="#666666"
     borderopacity="1.0"
     inkscape:pageopacity="0.0"
     inkscape:pageshadow="2"
     inkscape:zoom="0.98994949"
     inkscape:cx="500.57121"
     inkscape:cy="-259.44228"
     inkscape:document-units="px"
     inkscape:current-layer="layer1"
     showgrid="false"
     fit-margin-top="0"
     fit-margin-left="0"
     fit-margin-right="0"
     fit-margin-bottom="0"
     inkscape:window-width="1920"
     inkscape:window-height="1023"
     inkscape:window-x="0"
     inkscape:window-y="0"
     inkscape:window-maximized="1" />
  <metadata
     id="metadata10425">
    <rdf:RDF>
      <cc:Work
         rdf:about="">
        <dc:format>image/svg+xml</dc:format>
        <dc:type
           rdf:resource="http://purl.org/dc/dcmitype/StillImage" />
        <dc:title></dc:title>
      </cc:Work>
    </rdf:RDF>
  </metadata>
  <g
     inkscape:label="Ebene 1"
     inkscape:groupmode="layer"
     id="layer1"
     transform="translate(-195.5695,236.46103)">
    <path
       style="fill:#ffffff;fill-rule:evenodd"
       inkscape:connector-curvature="0"
       id="path8823"
       d="m 340.42217,44.477337 c 1.45274,0 2.65745,1.16928 2.65745,2.65746 0,1.45274 -1.20471,2.62202 -2.65745,2.62202 -1.48818,0 -2.65746,-1.16928 -2.65746,-2.62202 0,-1.48818 1.16928,-2.65746 2.65746,-2.65746 z"
       class="fil3" />
    <path
       style="fill:#ffffff;fill-rule:evenodd"
       inkscape:connector-curvature="0"
       id="path8825"
       d="m 344.4615,43.343487 c 0.74409,0 1.34645,0.56693 1.34645,1.31101 0,0.74409 -0.60236,1.31102 -1.34645,1.31102 -0.70865,0 -1.31101,-0.56693 -1.31101,-1.31102 0,-0.74408 0.60236,-1.31101 1.31101,-1.31101 z"
       class="fil3" />
    <path
       style="fill:#000000;fill-opacity:0.10196102;fill-rule:evenodd"
       inkscape:connector-curvature="0"
       id="path8837"
       d="m 338.47726,32.882727 4.99602,0 0,3.47241 0,1.20471 c 0,0.95669 0.77952,1.73621 1.73621,1.73621 l 1.20471,0 1.20471,0 c 0.81496,0 1.48818,-0.56692 1.70078,-1.31101 -1.16929,0.60235 -4.96059,0.63779 -4.96059,-1.52361 l 0,-1.20471 0,-3.50785 -4.99602,0 c -2.0551,0 -1.91337,-0.85038 -1.38187,-1.77163 l 6.90938,-9.17709 c 0,-0.0354 0,-0.0354 0,-0.0354 l -7.7952,10.31093 c -0.53149,0.95669 -0.67323,1.77164 1.38187,1.80707 z"
       class="fil1" />
    <path
       style="fill:#000000;fill-opacity:0.10196102;fill-rule:evenodd"
       inkscape:connector-curvature="0"
       id="path8839"
       d="m 353.35512,29.748887 0,1.13384 5.38578,0 c 1.16928,0 1.52361,-0.42519 1.24015,-1.13384 -0.1063,0 -0.24803,0 -0.35433,0 -0.60236,0 -4.39366,0 -6.2716,0 z"
       class="fil1" />
    <path
       transform="matrix(0.03543275,0,0,0.03543275,-117.87487,115.59941)"
       sodipodi:type="arc"
       id="path9830"
       style="fill:#000000;fill-rule:evenodd;stroke:none"
       sodipodi:cx="4938.8394"
       sodipodi:cy="-3104.4412"
       sodipodi:rx="1.5"
       sodipodi:ry="1.5"
       d="m 4940.3394,-3104.4412 c 0,0.8285 -0.6716,1.5 -1.5,1.5 -0.8285,0 -1.5,-0.6715 -1.5,-1.5 0,-0.8284 0.6715,-1.5 1.5,-1.5 0.8284,0 1.5,0.6716 1.5,1.5 z" />
    <path
       class="fil1"
       d="m 201.57522,-235.27911 c 8.99262,-1.55481 13.81541,-1.59683 22.59798,0 2.77346,0.54629 4.62242,2.39525 5.16868,5.21071 1.72292,8.86663 1.68093,13.77528 0,22.64192 -0.54626,2.81546 -2.35319,4.91655 -5.16868,5.16868 -8.78257,0.84044 -13.60536,0.79842 -22.59798,0 -2.81545,-0.25213 -4.8325,-2.35322 -5.16868,-5.16868 -1.00852,-8.86664 -1.21864,-13.77529 0,-22.64192 0.37821,-2.81546 2.39525,-4.70644 5.16868,-5.21071 z"
       id="path10643-4-9-0-4-5-8"
       inkscape:connector-curvature="0"
       style="fill:#000000;fill-opacity:0.29803922;fill-rule:evenodd"
       sodipodi:nodetypes="ccccccccc" />
    <path
       class="fil20"
       d="m 1751.3188,1102.5942 c 191,-34 331.3624,-35 519.3624,0 59,11 99,51 110,110 37,190 36,283.8116 0,473.8116 -11,60 -50,105 -110,111 -188,17 -328.3624,17 -519.3624,0 -61,-6 -104,-51 -111,-111 -21,-190 -26,-283.8116 0,-473.8116 8,-60 51,-100 111,-110 z"
       id="path10653-9-1-6-6-8-9"
       inkscape:connector-curvature="0"
       style="fill:#00aadc;fill-opacity:1;fill-rule:evenodd;filter:url(#filter9336-8-4-9-4-3-3)"
       transform="matrix(0.04202193,0,0,0.04202193,128.52801,-279.92994)"
       sodipodi:nodetypes="ccccccccc" />
    <path
       class="fil31"
       d="m 201.88643,-233.24336 c 6.89152,-1.21863 11.61322,-1.21863 18.33673,0 2.14311,0.42022 3.57183,1.84896 3.99206,3.99207 1.30269,6.80756 1.26067,9.61512 0,16.42267 -0.42023,2.14311 -1.80692,3.73995 -3.99206,3.95006 -6.72351,0.63033 -11.44521,0.63033 -18.33673,0 -2.18514,-0.16808 -3.73993,-1.80695 -3.99207,-3.95006 -0.75638,-6.80755 -0.92448,-9.61511 0,-16.42267 0.29416,-2.18513 1.84895,-3.61388 3.99207,-3.99207 z"
       id="path10677-2-2-4-6-5-5"
       inkscape:connector-curvature="0"
       style="fill:#00aadc;fill-opacity:1;fill-rule:evenodd"
       sodipodi:nodetypes="ccccccccc" />
    <path
       class="fil17"
       d="m 202.12152,-233.59659 c 8.02612,-1.42874 13.9244,-1.47076 21.82452,0 2.4793,0.46224 4.16016,2.14312 4.62242,4.62241 0.71439,3.61388 1.09256,5.22777 1.13459,8.84166 -10.65566,-5.35342 -22.6996,2.97287 -32.96033,-0.084 0,-3.57187 0.25211,-5.14373 0.71436,-8.75762 0.33619,-2.5213 2.14312,-4.20218 4.66444,-4.6224 z"
       id="path10679-4-8-0-3-7-5"
       inkscape:connector-curvature="0"
       style="fill:#ffffff;fill-opacity:0.50196078;fill-rule:evenodd;stroke-width:5.64449501;stroke-miterlimit:4;stroke-dasharray:none"
       sodipodi:nodetypes="ccccccc" />
    <path
       sodipodi:type="arc"
       id="path10134"
       style="fill:#ffffff;fill-opacity:1;fill-rule:evenodd;stroke:#dcdcdc;stroke-width:38.45893097;stroke-miterlimit:4;stroke-opacity:1;stroke-dasharray:none"
       sodipodi:cx="9313.3232"
       sodipodi:cy="-7902.2617"
       sodipodi:rx="1.5"
       sodipodi:ry="1.5"
       d="m 9314.8232,-7902.2617 c 0,0.8284 -0.6715,1.5 -1.5,1.5 -0.8284,0 -1.5,-0.6716 -1.5,-1.5 0,-0.8284 0.6716,-1.5 1.5,-1.5 0.8285,0 1.5,0.6716 1.5,1.5 z"
       transform="matrix(0.02600176,0,0,0.02600176,-35.048512,-15.934273)" />
    <path
       sodipodi:type="arc"
       id="path10136"
       style="fill:#ffffff;fill-opacity:1;fill-rule:evenodd;stroke:#dcdcdc;stroke-width:38.45893097;stroke-miterlimit:4;stroke-opacity:1;stroke-dasharray:none"
       sodipodi:cx="9454.4355"
       sodipodi:cy="-8043.374"
       sodipodi:rx="1.5"
       sodipodi:ry="1.5"
       d="m 9455.9355,-8043.374 c 0,0.8284 -0.6715,1.5 -1.5,1.5 -0.8284,0 -1.5,-0.6716 -1.5,-1.5 0,-0.8285 0.6716,-1.5 1.5,-1.5 0.8285,0 1.5,0.6715 1.5,1.5 z"
       transform="matrix(0.02600176,0,0,0.02600176,-35.048512,-15.934273)" />
    <path
       style="fill:#ffffff;fill-opacity:1;fill-rule:evenodd;stroke:#dcdcdc;stroke-width:0.99999988;stroke-linecap:butt;stroke-linejoin:miter;stroke-miterlimit:4;stroke-opacity:1;stroke-dasharray:none"
       d="m 210.78343,-225.07613 -3.66917,0 0,3.66917 3.66917,0 0,11.00751 -3.66917,0 0,3.66916 7.33834,0 3.66917,0 0,-3.66916 -3.66917,0 0,-14.67668 z"
       id="path10138"
       inkscape:connector-curvature="0" />
    <path
       style="fill:#ffffff;fill-opacity:1;fill-rule:evenodd;stroke:#dcdcdc;stroke-width:0.99999988;stroke-linecap:butt;stroke-linejoin:miter;stroke-miterlimit:4;stroke-opacity:1;stroke-dasharray:none"
       d="m 210.78343,-232.41447 0,3.66917 3.66917,0 0,-3.66917 z"
       id="path10146"
       inkscape:connector-curvature="0" />
  </g>
</svg>
