<?xml version="1.0" encoding="UTF-8" standalone="no"?>
<!-- Created with Inkscape (http://www.inkscape.org/) -->

<svg
   xmlns:dc="http://purl.org/dc/elements/1.1/"
   xmlns:cc="http://creativecommons.org/ns#"
   xmlns:rdf="http://www.w3.org/1999/02/22-rdf-syntax-ns#"
   xmlns:svg="http://www.w3.org/2000/svg"
   xmlns="http://www.w3.org/2000/svg"
   xmlns:sodipodi="http://sodipodi.sourceforge.net/DTD/sodipodi-0.dtd"
   xmlns:inkscape="http://www.inkscape.org/namespaces/inkscape"
   width="91.048943"
   height="34.817924"
   id="svg10937"
   version="1.1"
   inkscape:version="0.48.5 r10040"
   sodipodi:docname="start-button.svg"
   inkscape:export-filename="/home/benutzer/Downloads/MonkeyXPro85e_IgnitionX2.10/bananas/jumbo.data/menu/start-button.png"
   inkscape:export-xdpi="165"
   inkscape:export-ydpi="165">
  <defs
     id="defs10939">
    <filter
       color-interpolation-filters="sRGB"
       inkscape:collect="always"
       id="filter9336-8">
      <feGaussianBlur
         inkscape:collect="always"
         stdDeviation="7.3666931"
         id="feGaussianBlur9338-7" />
    </filter>
  </defs>
  <sodipodi:namedview
     id="base"
     pagecolor="#ffffff"
     bordercolor="#666666"
     borderopacity="1.0"
     inkscape:pageopacity="0.0"
     inkscape:pageshadow="2"
     inkscape:zoom="7.919596"
     inkscape:cx="83.2916"
     inkscape:cy="35.417312"
     inkscape:document-units="px"
     inkscape:current-layer="layer1"
     showgrid="false"
     fit-margin-top="0"
     fit-margin-left="0"
     fit-margin-right="0"
     fit-margin-bottom="0"
     inkscape:window-width="1920"
     inkscape:window-height="1023"
     inkscape:window-x="0"
     inkscape:window-y="0"
     inkscape:window-maximized="1" />
  <metadata
     id="metadata10942">
    <rdf:RDF>
      <cc:Work
         rdf:about="">
        <dc:format>image/svg+xml</dc:format>
        <dc:type
           rdf:resource="http://purl.org/dc/dcmitype/StillImage" />
        <dc:title></dc:title>
      </cc:Work>
    </rdf:RDF>
  </metadata>
  <g
     inkscape:label="Ebene 1"
     inkscape:groupmode="layer"
     id="layer1"
     transform="translate(62.667329,-346.38179)">
    <path
       class="fil1"
       d="m -56.661589,347.56371 c 8.992691,-1.55481 69.815451,-1.59683 78.598021,0 2.77346,0.54628 4.62242,2.39525 5.16872,5.21072 1.72288,8.86663 1.68089,13.77528 0,22.64192 -0.5463,2.81547 -2.35323,4.91656 -5.16872,5.1687 -8.78257,0.84043 -69.60533,0.79841 -78.598021,0 -2.81549,-0.25214 -4.83253,-2.35323 -5.16872,-5.1687 -1.00852,-8.86664 -1.2186,-13.77529 0,-22.64192 0.37821,-2.81547 2.39525,-4.70646 5.16872,-5.21072 z"
       id="path10643-4"
       inkscape:connector-curvature="0"
       style="fill:#000000;fill-opacity:0.29803922;fill-rule:evenodd"
       sodipodi:nodetypes="ccccccccc" />
    <path
       class="fil20"
       d="m 1085,1102.5942 c 191,-34 1664,-35 1852,0 59,11 99,51 110,110 37,190 36,283.8116 0,473.8116 -11,60 -50,105 -110,111 -188,17 -1661,17 -1852,0 -61,-6 -104,-51 -111,-111 -21,-190 -26,-283.8116 0,-473.8116 8,-60 51,-100 111,-110 z"
       id="path10653-9"
       inkscape:connector-curvature="0"
       style="fill:#aa0000;fill-opacity:1;fill-rule:evenodd;filter:url(#filter9336-8)"
       transform="matrix(0.04202193,0,0,0.04202193,-101.70903,302.91309)"
       sodipodi:nodetypes="ccccccccc" />
    <path
       class="fil31"
       d="m -54.350389,351.59946 c 6.891601,-1.21864 67.613271,-1.21864 74.336781,0 2.14311,0.42022 3.57187,1.84896 3.99207,3.99208 1.30268,6.80756 1.26066,9.61511 0,16.42267 -0.4202,2.14312 -1.80693,3.73995 -3.99207,3.95006 -6.72351,0.63033 -67.44518,0.63033 -74.336781,0 -2.18513,-0.16808 -3.73996,-1.80694 -3.9921,-3.95006 -0.75638,-6.80756 -0.92447,-9.61511 0,-16.42267 0.29416,-2.18514 1.84899,-3.61389 3.9921,-3.99208 z"
       id="path10677-2"
       inkscape:connector-curvature="0"
       style="fill:#aa0000;fill-opacity:1;fill-rule:evenodd"
       sodipodi:nodetypes="ccccccccc" />
    <path
       class="fil17"
       d="m -56.115329,349.24623 c 8.026191,-1.42875 69.924481,-1.47077 77.824601,0 2.4793,0.46224 4.1602,2.14312 4.62242,4.62241 0.71439,3.61389 1.09257,5.22778 1.13459,8.84167 -19.9813803,-13.33086 -51.73362,14.43339 -88.960401,-0.084 0,-3.57187 0.25213,-5.14373 0.71439,-8.75762 0.33615,-2.52131 2.14311,-4.20219 4.6644,-4.62241 z"
       id="path10679-4"
       inkscape:connector-curvature="0"
       style="fill:#ffffff;fill-opacity:0.50196078;fill-rule:evenodd;stroke-width:5.64449501;stroke-miterlimit:4;stroke-dasharray:none"
       sodipodi:nodetypes="ccccccc" />
    <path
       style="font-size:22.40709305px;font-style:normal;font-variant:normal;font-weight:bold;font-stretch:normal;text-indent:0;text-align:start;text-decoration:none;line-height:125%;letter-spacing:0px;word-spacing:0px;text-transform:none;direction:ltr;block-progression:tb;writing-mode:lr-tb;text-anchor:start;baseline-shift:baseline;color:#000000;fill:#ffffff;fill-opacity:1;fill-rule:nonzero;stroke:#dcdcdc;stroke-width:0.92183346;stroke-opacity:1;marker:none;visibility:visible;display:inline;overflow:visible;enable-background:accumulate;font-family:Droid Sans Arabic;-inkscape-font-specification:Droid Sans Arabic Bold"
       d="m -41.661843,353.52016 c -2.757436,-0.16496 -6.013974,1.29406 -6.451935,4.29927 -0.597683,2.47975 0.717562,5.25596 3.259773,5.95464 1.659415,0.67287 3.549115,0.65805 5.129662,1.52734 1.309158,2.68583 -3.225845,2.30582 -4.75,1.71875 -1.087688,0.23054 -3.604166,-2.45004 -3.59375,-0.91154 0,1.32468 0.0947,2.49152 0.0947,3.8162 3.358725,1.52482 7.552143,2.17052 11.054933,0.55552 2.855047,-1.56614 3.348779,-6.03426 1.225365,-8.36643 -2.030016,-1.99125 -5.089446,-1.60414 -7.5,-2.7187 -1.061208,-2.33487 2.839324,-1.98727 4.224911,-1.66241 1.042651,-0.25655 3.364294,1.9184 3.493839,0.70409 0,-1.21183 0,-2.42365 0,-3.63548 -0.760803,-0.64755 -2.809228,-1.10215 -4.426465,-1.19393 -0.585247,-0.056 -1.173045,-0.0873 -1.761035,-0.0873 z"
       id="path4030"
       inkscape:connector-curvature="0" />
    <path
       style="font-size:22.40709305px;font-style:normal;font-variant:normal;font-weight:bold;font-stretch:normal;text-indent:0;text-align:start;text-decoration:none;line-height:125%;letter-spacing:0px;word-spacing:0px;text-transform:none;direction:ltr;block-progression:tb;writing-mode:lr-tb;text-anchor:start;baseline-shift:baseline;color:#000000;fill:#ffffff;fill-opacity:1;fill-rule:nonzero;stroke:#dcdcdc;stroke-width:0.92183346;stroke-opacity:1;marker:none;visibility:visible;display:inline;overflow:visible;enable-background:accumulate;font-family:Droid Sans Arabic;-inkscape-font-specification:Droid Sans Arabic Bold"
       d="m -31.577586,354.58425 c -0.378807,1.25095 -0.315673,2.05996 -0.126269,3.31091 -1.029823,-0.0328 -1.272158,-0.22519 -1.874365,0.57998 0,1.1198 -0.157837,1.5767 0.347239,2.66494 0.963245,0.19159 1.320965,0.0417 1.527126,0.89566 0.102512,2.29656 -0.287853,4.66337 0.409071,6.88828 0.995589,2.45192 3.942725,2.15473 6.132368,2.15864 0.594432,-0.19903 2.086131,0.2151 2.052946,-0.61155 0,-1.10939 0.189403,-1.619 -0.189404,-2.9178 -1.481147,-0.31173 -2.247009,-0.0358 -3.373731,-0.3769 -0.384412,-1.51379 -0.09967,-3.15101 -0.1875,-4.71826 -0.382676,-1.17444 0.836376,-0.74715 1.562305,-0.81299 0.822982,0 1.456559,-0.0631 2.342676,-0.37881 0.315673,-1.31313 0.252538,-1.80552 -0.06313,-2.99238 -1.596288,-0.50508 -2.498096,-0.37881 -3.841846,-0.37881 0,-1 0.189404,-1.71589 -0.0947,-2.74746 -0.543345,-0.59377 -0.688007,-0.70233 -1.806161,-0.72129 -0.980962,0 -1.740954,-0.0947 -2.816625,0.15784 z"
       id="path4028"
       inkscape:connector-curvature="0" />
    <path
       style="font-size:22.40709305px;font-style:normal;font-variant:normal;font-weight:bold;font-stretch:normal;text-indent:0;text-align:start;text-decoration:none;line-height:125%;letter-spacing:0px;word-spacing:0px;text-transform:none;direction:ltr;block-progression:tb;writing-mode:lr-tb;text-anchor:start;baseline-shift:baseline;color:#000000;fill:#ffffff;fill-opacity:1;fill-rule:nonzero;stroke:#dcdcdc;stroke-width:0.92183346;stroke-opacity:1;marker:none;visibility:visible;display:inline;overflow:visible;enable-background:accumulate;font-family:Droid Sans Arabic;-inkscape-font-specification:Droid Sans Arabic Bold"
       d="m 5.589109,354.67895 c -0.220971,1.18782 -0.0947,2.05996 -0.0947,3.21621 -0.99401,0.1262 -1.576189,-0.20587 -2.53125,-0.25 -1.506794,-0.51539 -3.57476602,1.04498 -4.0625,1.39592 0.20128798,-0.95648 -0.136216,-1.37417 -1.119711,-1.14587 -1.241346,0 -2.482693,-0.22097 -3.755607,0.34724 -0.157836,4.30113 -0.126269,8.19189 0.189404,12.58772 1.583016,0.22097 3.134465,0.50508 4.591212,0.0947 0.36830898,-2.44136 -0.02267,-4.67653 0.20387698,-7.07503 0.1622,-2.70233 3.45311902,-1.85145 4.64082302,-2.14218 0.530124,0.10064 1.862368,-0.47734 1.84375,0.32808 0.102512,2.29656 -0.287853,4.66337 0.409071,6.88828 0.995589,2.45192 3.9427252,2.15473 6.132368,2.15864 0.594432,-0.19903 2.022996,0.43607 1.989811,-0.39058 0,-1.10939 0,-2.21878 0,-3.32817 -1.165474,-0.0592 -2.373278,0.15361 -3.5,-0.1875 -0.384412,-1.51379 -0.09967,-3.15101 -0.1875,-4.71826 -0.3826758,-1.17444 0.836376,-0.74715 1.562305,-0.81299 0.822982,0 1.67753,0.12627 2.247974,-0.31567 0.189404,-1.25 0.315673,-2.02649 0,-3.24493 -1.501586,-0.1894 -2.466529,-0.1894 -3.810279,-0.1894 0,-1 0,-2 0,-3 -0.5749118,-0.21496 -0.8774108,-0.70233 -1.900863,-0.46875 -0.980962,0 -1.772521,-0.0316 -2.848185,0.25254 z"
       id="path4026"
       inkscape:connector-curvature="0" />
    <path
       style="font-size:22.40709305px;font-style:normal;font-variant:normal;font-weight:bold;font-stretch:normal;text-indent:0;text-align:start;text-decoration:none;line-height:125%;letter-spacing:0px;word-spacing:0px;text-transform:none;direction:ltr;block-progression:tb;writing-mode:lr-tb;text-anchor:start;baseline-shift:baseline;color:#000000;fill:#ffffff;fill-opacity:1;fill-rule:nonzero;stroke:#dcdcdc;stroke-width:0.92183346;stroke-opacity:1;marker:none;visibility:visible;display:inline;overflow:visible;enable-background:accumulate;font-family:Droid Sans Arabic;-inkscape-font-specification:Droid Sans Arabic Bold"
       d="m -16.515066,357.57104 c -1.40992,-0.003 -2.74746,0.14379 -3.90625,0.84375 -0.22097,1.31187 -0.3163,2.21875 0.0625,3.59375 2.24255,-0.53389 4.37447,-1.31335 6.625,-0.5 1.21755,1.35989 -1.37112,0.62653 -2.125,0.84375 -2.33111,-0.012 -5.32296,0.82053 -5.75,3.5 -0.71248,2.64045 1.3863,5.52296 4.15625,5.53125 1.52022,0.6605 3.84964,-1.2414 4.21875,-1.15625 -0.31253,1.04862 0.57324,0.87817 1.34375,0.84375 1.17539,0 2.70184,0.0963 3.65625,-0.15625 0.21569,-3.00529 0.03713,-5.97837 -0.28125,-9.03125 -0.30876,-2.60884 -2.87433,-4.20132 -5.34375,-4.21875 -0.40429,-0.0337 -0.81312,-0.0625 -1.21875,-0.0625 -0.47937,-0.0232 -0.96753,-0.0302 -1.4375,-0.0312 z m 1.09375,7 c 0.18996,0.003 0.3804,0.0132 0.59375,0.0625 0.79243,0.0506 1.55503,-0.12158 2.28125,0.4375 0.56832,1.73927 -0.52836,3.57641 -2.53125,3.71875 -3.39281,0.62185 -3.19316,-4.25665 -0.34375,-4.21875 z"
       id="path4018"
       inkscape:connector-curvature="0" />
  </g>
</svg>
